<svg width="400" height="400" viewBox="0 0 400 400" fill="none" xmlns="http://www.w3.org/2000/svg">
<path fill-rule="evenodd" clip-rule="evenodd" d="M47.0588 380.952V19.0476V19.0476C47.0588 8.52787 36.5243 0 23.5294 0C10.5345 0 3.94738e-05 8.52787 0 19.0476V19.0476V380.952C0 391.472 10.5345 400 23.5294 400C36.5243 400 47.0588 391.472 47.0588 380.952Z" fill="#11AEE0" fill-opacity="0.025"/>
<path fill-rule="evenodd" clip-rule="evenodd" d="M117.647 380.952V19.0476V19.0476C117.647 8.52787 107.113 0 94.1177 0C81.1228 0 70.5883 8.52787 70.5883 19.0476V19.0476V380.952C70.5883 391.472 81.1228 400 94.1177 400C107.113 400 117.647 391.472 117.647 380.952Z" fill="#11AEE0" fill-opacity="0.025"/>
<path fill-rule="evenodd" clip-rule="evenodd" d="M188.235 380.952V19.0476V19.0476C188.235 8.52787 177.701 0 164.706 0C151.711 0 141.177 8.52787 141.177 19.0476V19.0476V380.952C141.177 391.472 151.711 400 164.706 400C177.701 400 188.235 391.472 188.235 380.952Z" fill="#11AEE0" fill-opacity="0.025"/>
<path fill-rule="evenodd" clip-rule="evenodd" d="M400 75.5635C400 110.773 370.005 140.358 329.412 148.746V380.89C329.412 391.444 318.877 400 305.882 400C292.888 400 282.353 391.444 282.353 380.89V148.746C274.005 147.021 266.106 144.4 258.824 141.018V377.674C258.824 390.005 248.289 400 235.294 400C222.299 400 211.765 390.005 211.765 377.674V81.0631V76.2789H211.769C211.766 76.0407 211.765 75.8022 211.765 75.5635C211.765 33.8309 253.903 0 305.882 0C357.862 0 400 33.8309 400 75.5635ZM305.882 113.345C331.872 113.345 352.941 96.4298 352.941 75.5635C352.941 54.6972 331.872 37.7817 305.882 37.7817C279.893 37.7817 258.824 54.6972 258.824 75.5635C258.824 96.4298 279.893 113.345 305.882 113.345Z" fill="#11AEE0" fill-opacity="0.025"/>
</svg>
