<svg width="48" height="48" viewBox="0 0 48 48" fill="none" xmlns="http://www.w3.org/2000/svg">
<path d="M48 40C48 44.4 44.4 48 40 48H8C3.6 48 0 44.4 0 40V8C0 3.6 3.6 0 8 0H40C44.4 0 48 3.6 48 8V40Z" fill="#563D7C"/>
<path d="M13.043 10.4314H26.6508C29.1606 10.4314 31.1763 11.0039 32.69 12.1569C34.2037 13.3098 34.9645 15.0432 34.9645 17.3726C34.9645 18.7843 34.6194 19.9922 33.9292 20.9961C33.239 22 32.2508 22.7843 30.9645 23.3334V23.4118C32.69 23.7804 33.9998 24.5961 34.8861 25.8589C35.7724 27.1294 36.2194 28.7138 36.2194 30.6275C36.2194 31.7255 36.0233 32.753 35.6312 33.702C35.239 34.6589 34.6273 35.4824 33.788 36.1726C32.9488 36.8628 31.8822 37.4118 30.5724 37.8196C29.2626 38.2275 27.7096 38.4314 25.9057 38.4314H13.043V10.4314ZM17.9449 22.1569H25.9449C27.1214 22.1569 28.1018 21.8275 28.8861 21.153C29.6704 20.4785 30.0626 19.5216 30.0626 18.2667C30.0626 16.8549 29.7096 15.8588 29.0037 15.2863C28.2979 14.7137 27.2782 14.4236 25.9449 14.4236H17.9449V22.1569ZM17.9449 34.4314H26.6116C28.1018 34.4314 29.2626 34.0471 30.0782 33.2706C30.9018 32.502 31.3175 31.4039 31.3175 29.9922C31.3175 28.6039 30.9096 27.5451 30.0782 26.7922C29.2469 26.0392 28.1018 25.6785 26.6116 25.6785H17.9449V34.4314Z" fill="white"/>
</svg>
