<svg width="43" height="48" viewBox="0 0 43 48" fill="none" xmlns="http://www.w3.org/2000/svg">
<path d="M42.324 0L38.4681 43.195L21.1361 48L3.85174 43.2018L0 0H42.324Z" fill="#264DE4"/>
<path d="M35.167 40.4444L38.4621 3.53235H21.1619V44.3272L35.167 40.4444Z" fill="#2965F1"/>
<path d="M8.83008 19.5554L9.30497 24.8538H21.162V19.5554H8.83008Z" fill="#EBEBEB"/>
<path d="M21.1619 8.83093H21.1436H7.87573L8.35739 14.1295H21.1619V8.83093Z" fill="#EBEBEB"/>
<path d="M21.1621 38.8288V33.3161L21.1388 33.3223L15.2379 31.7289L14.8606 27.5031H11.9932H9.54175L10.2841 35.8225L21.1377 38.8356L21.1621 38.8288Z" fill="#EBEBEB"/>
<path d="M27.6681 24.8537L27.0531 31.7255L21.1436 33.3205V38.833L32.0058 35.8225L32.0855 34.9273L33.3306 20.9781L33.4599 19.5553L34.4164 8.83093H21.1436V14.1295H28.6097L28.1276 19.5553H21.1436V24.8537H27.6681Z" fill="white"/>
</svg>
