<svg width="94" height="80" viewBox="0 0 94 80" fill="none" xmlns="http://www.w3.org/2000/svg">
<path fill-rule="evenodd" clip-rule="evenodd" d="M59 79.9998C78.33 79.9998 94 64.1315 94 44.5568C94 24.9822 78.33 9.11377 59 9.11377C39.67 9.11377 24 24.9822 24 44.5568C24 64.1315 39.67 79.9998 59 79.9998ZM59 74.0927C75.1083 74.0927 88.1667 60.869 88.1667 44.5568C88.1667 28.2446 75.1083 15.021 59 15.021C42.8917 15.021 29.8334 28.2446 29.8334 44.5568C29.8334 60.869 42.8917 74.0927 59 74.0927Z" fill="#212121"/>
<rect x="55" y="4.05078" width="8" height="6.07595" fill="#212121"/>
<rect x="44" width="30" height="6" rx="3" fill="#212121"/>
<ellipse cx="59" cy="44.557" rx="3" ry="3.03797" fill="#212121"/>
<rect width="2.00592" height="11.7567" rx="1.00296" transform="matrix(0.87335 0.487094 -0.477782 0.878478 64.6172 32.4053)" fill="#212121"/>
<rect width="2.02532" height="18.9989" rx="1.01266" transform="matrix(0.00253005 0.999997 -0.999997 0.0025945 78.9988 43.5444)" fill="#212121"/>
<rect x="6" y="34" width="16" height="3" rx="1.5" fill="#212121"/>
<rect y="41" width="22" height="3" rx="1.5" fill="#212121"/>
<rect x="6" y="48" width="17" height="3" rx="1.5" fill="#212121"/>
<rect x="12" y="55" width="13" height="3" rx="1.5" fill="#212121"/>
</svg>
