<svg width="33" height="48" viewBox="0 0 33 48" fill="none" xmlns="http://www.w3.org/2000/svg">
<g clip-path="url(#clip0)">
<path d="M8.00314 47.9999C12.4191 47.9999 16.0031 44.416 16.0031 40V32H8.00314C3.58716 32 0.00317383 35.584 0.00317383 40C0.00317383 44.416 3.58716 47.9999 8.00314 47.9999Z" fill="#0ACF83"/>
<path d="M0.00317383 24C0.00317383 19.584 3.58716 16 8.00314 16H16.0031V31.9999H8.00314C3.58716 31.9999 0.00317383 28.416 0.00317383 24Z" fill="#A259FF"/>
<path d="M0.00317383 8C0.00317383 3.584 3.58716 0 8.00314 0H16.0031V16H8.00314C3.58716 16 0.00317383 12.416 0.00317383 8Z" fill="#F24E1E"/>
<path d="M16.0032 0H24.0032C28.4192 0 32.0032 3.584 32.0032 8C32.0032 12.416 28.4192 16 24.0032 16H16.0032V0Z" fill="#FF7262"/>
<path d="M32.0032 24C32.0032 28.416 28.4192 31.9999 24.0032 31.9999C19.5872 31.9999 16.0032 28.416 16.0032 24C16.0032 19.584 19.5872 16 24.0032 16C28.4192 16 32.0032 19.584 32.0032 24Z" fill="#1ABCFE"/>
</g>
<defs>
<clipPath id="clip0">
<rect width="32.0064" height="48" fill="white"/>
</clipPath>
</defs>
</svg>
