<svg width="50" height="50" viewBox="0 0 50 50" fill="none" xmlns="http://www.w3.org/2000/svg">
<path fill-rule="evenodd" clip-rule="evenodd" d="M25.0001 0C11.2296 0 0.0683594 11.4426 0.0683594 25.5602C0.0683594 36.8487 7.21317 46.4286 17.1175 49.8179C18.3607 50.056 18.8252 49.2577 18.8252 48.5854C18.8252 47.9692 18.7979 45.9664 18.7979 43.8235C11.858 45.3641 10.3962 40.8123 10.3962 40.8123C9.26235 37.8571 7.623 37.0728 7.623 37.0728C5.35524 35.4902 7.78694 35.5182 7.78694 35.5182C10.2869 35.7003 11.6121 38.1513 11.6121 38.1513C13.8389 42.0588 17.4454 40.9244 18.8662 40.2801C19.0848 38.6275 19.7405 37.507 20.4509 36.8627C14.9181 36.2185 9.08475 34.0196 9.08475 24.2297C9.08475 21.4426 10.0547 19.1597 11.6531 17.3669C11.3935 16.7227 10.5465 14.1176 11.899 10.6022C11.899 10.6022 13.9891 9.91597 18.7569 13.2213C20.7514 12.6611 22.8826 12.3669 25.0001 12.3669C27.1175 12.381 29.2487 12.6611 31.2432 13.2213C35.9973 9.91597 38.0875 10.6022 38.0875 10.6022C39.4399 14.1176 38.593 16.7227 38.3334 17.3669C39.9317 19.1597 40.9017 21.4426 40.9017 24.2297C40.9017 34.0476 35.0684 36.2045 29.5219 36.8347C30.4099 37.6331 31.2159 39.1877 31.2159 41.5686C31.2159 44.986 31.1886 47.7451 31.1886 48.5854C31.1886 49.2717 31.6394 50.056 32.8962 49.8179C42.8006 46.4286 49.9317 36.8627 49.9317 25.5602C49.9317 11.4426 38.7705 0 25.0001 0Z" fill="black"/>
</svg>
