<svg width="50" height="46" viewBox="0 0 48 44" fill="none" xmlns="http://www.w3.org/2000/svg">
<g clip-path="url(#clip0)">
<path d="M39.4658 14.2612C38.9549 14.0806 38.4398 13.9134 37.9206 13.7596C38.0067 13.3992 38.0863 13.0372 38.1594 12.6737C39.329 6.8239 38.5642 2.1113 35.9526 0.559972C33.4487 -0.927946 29.3535 0.623446 25.2174 4.33168C24.8099 4.69792 24.4115 5.07459 24.0223 5.46168C23.7618 5.20436 23.4966 4.95207 23.227 4.70482C18.8923 0.739491 14.5475 -0.931322 11.9386 0.624585C9.43703 2.11659 8.69606 6.54708 9.74909 12.0909C9.85386 12.6399 9.97212 13.1859 10.1039 13.7289C9.4891 13.9088 8.89536 14.1006 8.32731 14.3045C3.24551 16.1299 0 18.9909 0 21.9583C0 25.0233 3.48386 28.0974 8.77722 29.9612C9.20643 30.1116 9.63908 30.251 10.0752 30.3792C9.93354 30.9641 9.80785 31.5526 9.69809 32.1448C8.69414 37.5924 9.47823 41.9178 11.9732 43.4006C14.5502 44.9316 18.8753 43.358 23.087 39.565C23.4198 39.2652 23.7537 38.9481 24.0886 38.6138C24.51 39.0328 24.9425 39.4393 25.3861 39.8336C29.4656 43.4503 33.4946 44.9108 35.9875 43.424C38.5621 41.8885 39.3987 37.2418 38.3123 31.5882C38.2295 31.1564 38.1335 30.7158 38.0245 30.2663C38.3283 30.1739 38.6258 30.0782 38.9171 29.9791C44.4199 28.101 48 25.0642 48 21.9583C48 18.9802 44.65 16.0999 39.4658 14.2612ZM26.5636 5.92551C30.1074 2.74797 33.4194 1.49349 34.9285 2.39018C36.5357 3.34531 37.1609 7.19667 36.151 12.2474C36.0848 12.5765 36.0129 12.9042 35.9352 13.2306C33.8206 12.7368 31.6766 12.3878 29.5172 12.186C28.2801 10.3549 26.9246 8.6118 25.4598 6.96863C25.8193 6.61155 26.1872 6.26385 26.5636 5.92551ZM14.1728 24.4932C14.6068 25.357 15.0605 26.21 15.5336 27.0522C16.0163 27.9109 16.5186 28.7575 17.0406 29.5919C15.5548 29.4258 14.0783 29.1812 12.6169 28.8591C13.0407 27.4491 13.5629 25.9836 14.1728 24.4932ZM14.1704 19.5245C13.5733 18.0653 13.0624 16.6307 12.6452 15.2452C14.0147 14.9294 15.4751 14.6714 16.9968 14.4755C16.4875 15.294 15.9969 16.1245 15.5253 16.967C15.0544 17.8085 14.6028 18.661 14.1704 19.5245ZM15.2604 22.0091C15.8922 20.6542 16.5728 19.3253 17.3021 18.0222V18.0226C18.0307 16.7202 18.8065 15.4478 19.6295 14.2052C21.057 14.094 22.5207 14.0358 24.0002 14.0358C25.4864 14.0358 26.952 14.0944 28.3791 14.2065C29.1932 15.4462 29.9641 16.7144 30.6918 18.011C31.4231 19.3102 32.1129 20.6329 32.7611 21.9791C32.1199 23.3382 31.4324 24.6726 30.6986 25.9821H30.6984C29.9712 27.2835 29.2037 28.5595 28.3956 29.8101C26.9715 29.9149 25.4997 29.9689 24 29.9689C22.5064 29.9689 21.0534 29.921 19.6541 29.8276C18.8255 28.5805 18.0436 27.3026 17.3082 25.9937C16.5769 24.6927 15.8943 23.3645 15.2604 22.0091H15.2604ZM32.4747 27.0375C32.9575 26.1748 33.4215 25.3014 33.8667 24.4172C34.4768 25.8376 35.0148 27.2897 35.4787 28.7676C34.0004 29.1099 32.5059 29.3723 31.001 29.554C31.5084 28.7253 31.9997 27.8865 32.4747 27.0375H32.4747ZM33.8473 19.526C33.4037 18.6588 32.9434 17.801 32.4665 16.9526C31.9972 16.1175 31.5107 15.2931 31.0069 14.4794C32.5385 14.6786 34.0058 14.9434 35.3836 15.2676C34.9413 16.7128 34.4285 18.134 33.8472 19.526H33.8473ZM24.023 8.47944C25.0213 9.60077 25.9641 10.7733 26.8477 11.9927C24.9577 11.9007 23.0666 11.9002 21.1745 11.9914C22.1071 10.7244 23.0623 9.54728 24.023 8.47944ZM12.9659 2.45298C14.5719 1.49523 18.1227 2.86094 21.8653 6.28459C22.1045 6.50346 22.3448 6.7326 22.5854 6.96964C21.1122 8.61249 19.7462 10.3541 18.4966 12.1831C16.3423 12.3822 14.2027 12.7248 12.0914 13.2087C11.9689 12.7038 11.859 12.1958 11.7615 11.685V11.6852C10.8592 6.93512 11.4583 3.35216 12.9659 2.45298ZM10.6254 28.3443C10.2275 28.227 9.83247 28.0996 9.44043 27.9622C7.4077 27.3032 5.50999 26.2646 3.84209 24.8981C3.36423 24.5603 2.95869 24.1251 2.65053 23.6195C2.34237 23.1138 2.13814 22.5485 2.05046 21.9583C2.05046 20.1577 4.65633 17.8607 9.00246 16.2995C9.54797 16.1044 10.0987 15.9259 10.6545 15.7639C11.2999 17.8967 12.0814 19.9832 12.994 22.0097C12.0699 24.0652 11.2787 26.1813 10.6254 28.3443V28.3443ZM21.7376 37.9742C20.1681 39.4593 18.3467 40.6342 16.3644 41.44H16.3642C15.8415 41.6977 15.2731 41.8422 14.6941 41.8647C14.1151 41.8871 13.5378 41.787 12.9978 41.5704C11.4836 40.6709 10.8544 37.1975 11.7128 32.5389C11.8149 31.9884 11.9317 31.4411 12.0634 30.897C14.1959 31.369 16.3571 31.6913 18.5319 31.8618C19.7924 33.7011 21.1688 35.4532 22.6522 37.1067C22.3542 37.4035 22.0493 37.6927 21.7376 37.9742ZM24.0797 35.5864C23.1078 34.5059 22.1385 33.3109 21.1917 32.0255C22.1106 32.0627 23.0467 32.0814 24 32.0815C24.9784 32.0815 25.9443 32.0594 26.8976 32.0152C26.0181 33.2544 25.0776 34.4464 24.0797 35.5864V35.5864ZM36.5315 38.5257C36.4872 39.1209 36.3249 39.7005 36.0546 40.2285C35.7843 40.7566 35.4118 41.2219 34.96 41.5957C33.4473 42.4979 30.2122 41.3252 26.7237 38.2322C26.3237 37.8776 25.9213 37.4997 25.5166 37.0985C26.9713 35.4393 28.3155 33.6807 29.5401 31.8348C31.7275 31.6447 33.8996 31.2997 36.0411 30.8024C36.1388 31.2095 36.2254 31.6083 36.3009 31.9988C36.7659 34.1414 36.844 36.3539 36.5315 38.5257V38.5257ZM38.2724 27.974H38.2722C38.0098 28.0635 37.7405 28.1499 37.466 28.2337C36.7948 26.091 35.9827 23.9978 35.0354 21.9687C35.9469 19.9668 36.7273 17.9043 37.3715 15.795C37.8624 15.9416 38.3391 16.096 38.7984 16.259C43.2403 17.8341 45.9496 20.1635 45.9496 21.9582C45.9496 23.8701 43.0234 26.352 38.2724 27.974V27.974Z" fill="#61DAFB"/>
<path d="M24 17.5422C24.8478 17.5422 25.6765 17.8011 26.3814 18.2864C27.0863 18.7716 27.6357 19.4613 27.9601 20.2683C28.2846 21.0752 28.3695 21.9632 28.2041 22.8199C28.0387 23.6765 27.6305 24.4634 27.031 25.081C26.4316 25.6986 25.6678 26.1192 24.8363 26.2896C24.0048 26.46 23.143 26.3726 22.3598 26.0383C21.5765 25.704 20.9071 25.138 20.4361 24.4117C19.9652 23.6855 19.7138 22.8317 19.7138 21.9582C19.7138 20.787 20.1654 19.6638 20.9692 18.8356C21.773 18.0074 22.8632 17.5422 24 17.5422" fill="#61DAFB"/>
</g>
<defs>
<clipPath id="clip0">
<rect width="48" height="44" fill="white"/>
</clipPath>
</defs>
</svg>
