<svg width="141" height="80" viewBox="0 0 141 80" fill="none" xmlns="http://www.w3.org/2000/svg">
<rect x="13" width="128" height="71.8367" rx="3" fill="#212121"/>
<rect x="15.7234" y="3.26514" width="122.553" height="63.6735" fill="white"/>
<rect x="64.7445" y="71.8369" width="24.5106" height="4.89796" fill="#212121"/>
<rect x="51.1276" y="76.7349" width="51.7447" height="3.26531" rx="1.63265" fill="#212121"/>
<rect x="132.83" y="68.5713" width="1.3617" height="1.63265" rx="0.680851" fill="white"/>
<path fill-rule="evenodd" clip-rule="evenodd" d="M107 38C106.448 38 106 38.4477 106 39V78.6C106 79.1523 106.448 79.6 107 79.6H130.6C131.152 79.6 131.6 79.1523 131.6 78.6V39C131.6 38.4477 131.152 38 130.6 38H107ZM128.187 42.8H107.707V74.8H128.187V42.8Z" fill="#212121"/>
<rect x="107.6" y="42.7998" width="22.4" height="32" fill="white"/>
<rect x="115.6" y="39.6001" width="6.4" height="1.6" rx="0.8" fill="white"/>
<rect x="117.2" y="76.3999" width="3.2" height="1.6" rx="0.8" fill="white"/>
<rect y="8" width="48" height="72" rx="2" fill="#212121"/>
<rect x="3.78943" y="13.647" width="40.4211" height="59.2941" fill="white"/>
<ellipse cx="24.6316" cy="11.5296" rx="0.631579" ry="0.705882" fill="white"/>
<ellipse cx="18.9474" cy="75.7648" rx="1.26316" ry="1.41176" fill="white"/>
<ellipse cx="29.0526" cy="75.7648" rx="1.26316" ry="1.41176" fill="white"/>
<ellipse cx="24.0001" cy="75.7648" rx="1.26316" ry="1.41176" fill="white"/>
</svg>
